<svg width="85" height="127" viewBox="0 0 85 127" fill="none" xmlns="http://www.w3.org/2000/svg">
<rect x="0.25" y="0.25" width="84.5" height="126.5" rx="1.75" stroke="#C0C0C0" stroke-width="0.5"/>
<path d="M23.2079 102H24.2199L25.0669 99.602H28.2019L29.0379 102H30.1159L27.2119 94.135H26.1009L23.2079 102ZM26.2879 96.159C26.4419 95.708 26.6509 95.048 26.6509 95.048H26.6729C26.6729 95.048 26.8709 95.719 27.0249 96.159L27.9269 98.799H25.3529L26.2879 96.159ZM32.0567 96.313H31.1657V102H32.0567V98.502C32.0567 97.567 32.7167 96.929 33.6187 96.929C34.4217 96.929 34.9057 97.347 34.9057 98.084V102H35.7967V98.007C35.7967 96.83 35.0707 96.181 33.8827 96.181C33.0577 96.181 32.4857 96.522 32.0787 97.061H32.0567V96.313ZM39.5072 102.165C40.3102 102.165 40.8382 101.857 41.2672 101.307H41.2892V102H42.1802V94.135H41.2892V97.116H41.2672C40.9042 96.577 40.2882 96.181 39.4852 96.181C38.0772 96.181 36.9882 97.281 36.9882 99.173C36.9882 100.999 37.9562 102.165 39.5072 102.165ZM39.5402 101.417C38.4512 101.417 37.9012 100.471 37.9012 99.184C37.9012 97.908 38.4512 96.94 39.5292 96.94C40.7062 96.94 41.3442 97.864 41.3442 99.184C41.3442 100.471 40.8052 101.417 39.5402 101.417ZM44.6083 96.313H43.7173V102H44.6083V98.843C44.6083 97.776 45.3783 97.116 46.2583 97.116C46.4343 97.116 46.5223 97.127 46.6543 97.171H46.6873V96.313C46.5773 96.269 46.4893 96.247 46.3243 96.247C45.5653 96.247 44.9713 96.709 44.6303 97.259H44.6083V96.313ZM50.034 102.154C51.739 102.154 52.773 100.812 52.773 99.162C52.773 97.512 51.739 96.17 50.034 96.17C48.34 96.17 47.284 97.512 47.284 99.162C47.284 100.812 48.34 102.154 50.034 102.154ZM50.034 101.406C48.824 101.406 48.197 100.416 48.197 99.162C48.197 97.908 48.824 96.907 50.034 96.907C51.244 96.907 51.86 97.908 51.86 99.162C51.86 100.416 51.244 101.406 50.034 101.406ZM53.9916 102H54.8826V96.313H53.9916V102ZM53.9916 95.235H54.8826V94.135H53.9916V95.235ZM58.627 102.165C59.43 102.165 59.958 101.857 60.387 101.307H60.409V102H61.3V94.135H60.409V97.116H60.387C60.024 96.577 59.408 96.181 58.605 96.181C57.197 96.181 56.108 97.281 56.108 99.173C56.108 100.999 57.076 102.165 58.627 102.165ZM58.66 101.417C57.571 101.417 57.021 100.471 57.021 99.184C57.021 97.908 57.571 96.94 58.649 96.94C59.826 96.94 60.464 97.864 60.464 99.184C60.464 100.471 59.925 101.417 58.66 101.417Z" fill="#2E2E2E"/>
<path d="M59.8544 28.6888H59.7088V13.0863C59.7088 10.8574 57.8886 9 55.7045 9H30.2227C28.0385 9 26.2184 10.8574 26.2184 13.0863V78.9137C26.2184 81.1426 28.0385 83 30.2227 83H55.7773C57.9615 83 59.7816 81.1426 59.7816 78.9137V34.1124H59.9272C60 34.1124 60 34.1125 60 34.0382V28.7631C59.9272 28.6888 59.9272 28.6888 59.8544 28.6888ZM40.7794 10.6345H45.0749C45.2206 10.6345 45.2934 10.7831 45.2206 10.9317L45.1478 11.0803C45.1478 11.1546 45.0021 11.2289 44.9293 11.2289H40.9251C40.8522 11.2289 40.7794 11.1546 40.7066 11.0803L40.6338 10.9317C40.561 10.7088 40.6338 10.6345 40.7794 10.6345ZM58.9807 77.0562C58.9807 78.6908 57.6702 80.0281 56.0685 80.0281H29.8587C28.257 80.0281 26.9465 78.6908 26.9465 77.0562V15.3896C26.9465 13.755 28.257 12.4177 29.8587 12.4177H56.0685C57.6702 12.4177 58.9807 13.755 58.9807 15.3896V77.0562ZM26 20.8876V30.3233C26 30.3976 26 30.3976 26.0728 30.3976H26.2184V20.8133H26.0728C26 20.8133 26 20.8133 26 20.8876ZM26 34.261V39.5361C26 39.6104 26 39.6104 26.0728 39.6104H26.2184V34.1867H26.0728C26 34.1867 26 34.261 26 34.261Z" fill="black"/>
</svg>
