<svg width="85" height="127" viewBox="0 0 85 127" fill="none" xmlns="http://www.w3.org/2000/svg">
<rect x="0.25" y="0.25" width="84.5" height="126.5" rx="1.75" stroke="#C0C0C0" stroke-width="0.5"/>
<path d="M20.9471 102H21.8381V96.313H20.9471V102ZM20.9471 95.235H21.8381V94.135H20.9471V95.235ZM23.5146 102H24.5046V98.7H26.6496C28.3656 98.7 29.1906 97.831 29.1906 96.39C29.1906 95.796 28.9926 95.279 28.6626 94.894C28.2556 94.41 27.6176 94.135 26.7926 94.135H23.5146V102ZM24.5046 94.993H26.6276C27.6286 94.993 28.2116 95.488 28.2116 96.434C28.2116 97.336 27.6836 97.897 26.5726 97.897H24.5046V94.993ZM31.2315 94.135H30.3405V102H31.2315V98.502C31.2315 97.567 31.8915 96.929 32.7935 96.929C33.5965 96.929 34.0805 97.347 34.0805 98.084V102H34.9715V98.007C34.9715 96.83 34.2455 96.181 33.0575 96.181C32.2325 96.181 31.6605 96.522 31.2535 97.061H31.2315V94.135ZM38.9131 102.154C40.6181 102.154 41.6521 100.812 41.6521 99.162C41.6521 97.512 40.6181 96.17 38.9131 96.17C37.2191 96.17 36.1631 97.512 36.1631 99.162C36.1631 100.812 37.2191 102.154 38.9131 102.154ZM38.9131 101.406C37.7031 101.406 37.0761 100.416 37.0761 99.162C37.0761 97.908 37.7031 96.907 38.9131 96.907C40.1231 96.907 40.7391 97.908 40.7391 99.162C40.7391 100.416 40.1231 101.406 38.9131 101.406ZM43.7617 96.313H42.8707V102H43.7617V98.502C43.7617 97.567 44.4217 96.929 45.3237 96.929C46.1267 96.929 46.6107 97.347 46.6107 98.084V102H47.5017V98.007C47.5017 96.83 46.7757 96.181 45.5877 96.181C44.7627 96.181 44.1907 96.522 43.7837 97.061H43.7617V96.313ZM51.4432 102.154C52.7302 102.154 53.6212 101.461 53.8852 100.24H53.0162C52.8182 101.01 52.2682 101.406 51.4432 101.406C50.2992 101.406 49.6722 100.526 49.6062 99.371H54.0062C54.0062 97.49 53.0932 96.17 51.3882 96.17C49.7712 96.17 48.6932 97.512 48.6932 99.162C48.6932 100.812 49.7052 102.154 51.4432 102.154ZM51.3882 96.874C52.4112 96.874 52.9942 97.567 53.0492 98.7H49.6282C49.7602 97.666 50.3322 96.874 51.3882 96.874ZM60.1154 102.165C61.5234 102.165 62.6564 100.999 62.6454 99.591C62.6344 98.205 61.5454 97.061 60.1594 97.061C59.2574 97.061 58.5754 97.435 58.0914 98.106H58.0694C58.1024 96.258 58.6304 95.07 60.1044 95.07C60.9734 95.07 61.4794 95.664 61.5454 96.379H62.4584C62.3374 95.29 61.5894 94.289 60.0824 94.289C58.1684 94.289 57.1674 95.84 57.1674 98.183C57.1674 99.734 57.4314 100.768 58.2344 101.494C58.6854 101.912 59.2904 102.165 60.1154 102.165ZM60.0934 101.417C59.0374 101.417 58.2344 100.68 58.2344 99.613C58.2344 98.535 58.9824 97.82 60.0604 97.82C61.0394 97.82 61.7874 98.557 61.7874 99.624C61.7874 100.691 61.0724 101.417 60.0934 101.417ZM63.7926 103.408C64.4196 103.287 64.8486 102.836 64.8486 102.033V100.911H63.7816V102H64.2876C64.2876 102.616 64.0346 102.825 63.7926 102.913V103.408ZM26.8154 115H27.8054C27.9594 112.008 29.4774 109.577 31.0174 108.224V107.465H25.7484V108.29H30.0494V108.312C28.3554 109.676 26.9804 112.371 26.8154 115ZM31.3048 116.408C31.9318 116.287 32.3608 115.836 32.3608 115.033V113.911H31.2938V115H31.7998C31.7998 115.616 31.5468 115.825 31.3048 115.913V116.408ZM38.496 115.165C39.882 115.165 41.312 114.56 41.312 112.844C41.312 111.821 40.63 111.139 39.783 110.886V110.853C40.487 110.578 40.938 110.028 40.938 109.247C40.938 108.037 39.849 107.278 38.463 107.278C37.077 107.278 35.988 108.048 35.988 109.247C35.988 110.028 36.461 110.589 37.165 110.853V110.886C36.318 111.161 35.614 111.755 35.614 112.844C35.614 114.549 37.11 115.165 38.496 115.165ZM38.496 114.395C37.286 114.395 36.56 113.823 36.56 112.844C36.56 111.854 37.275 111.238 38.463 111.238C39.673 111.238 40.388 111.854 40.388 112.844C40.388 113.812 39.673 114.395 38.496 114.395ZM38.463 110.512C37.495 110.512 36.89 110.05 36.89 109.28C36.89 108.51 37.495 108.048 38.463 108.048C39.431 108.048 40.036 108.51 40.036 109.28C40.036 110.05 39.431 110.512 38.463 110.512ZM42.4998 116.408C43.1268 116.287 43.5558 115.836 43.5558 115.033V113.911H42.4888V115H42.9948C42.9948 115.616 42.7418 115.825 42.4998 115.913V116.408ZM50.0431 115.154C51.7371 115.154 52.9361 114.329 52.9361 112.855C52.9361 111.084 51.5391 110.71 50.0101 110.402C48.8331 110.171 47.9531 109.907 47.9531 109.016C47.9531 108.202 48.6571 107.751 49.7241 107.751C50.8791 107.751 51.6051 108.312 51.7481 109.434H52.6831C52.4851 107.982 51.6711 106.981 49.7021 106.981C48.1071 106.981 47.0291 107.762 47.0291 109.06C47.0291 110.545 48.2171 110.941 49.6031 111.249C51.0111 111.557 51.9571 111.81 51.9571 112.888C51.9571 113.867 51.1761 114.362 50.0871 114.362C48.6021 114.362 47.7881 113.669 47.6561 112.338H46.6881C46.7761 113.922 47.8321 115.154 50.0431 115.154ZM54.3988 115H60.0858V114.087H55.3888V111.326H59.5358V110.49H55.3888V108.004H59.9538V107.135H54.3988V115Z" fill="#2E2E2E"/>
<g clip-path="url(#clip0)">
<path d="M58.9329 30.204H58.7988V21.36C58.7988 18.412 56.3841 16 53.4329 16H31.6341C28.6829 16 26.2683 18.412 26.2683 21.36V24.509H26.1341C26.0671 24.509 26 24.576 26 24.643V26.921C26 26.988 26.0671 27.055 26.1341 27.055H26.2683V30.137H26.1341C26.0671 30.137 26 30.204 26 30.271V34.961C26 35.028 26.0671 35.095 26.1341 35.095H26.2683V36.301H26.1341C26.0671 36.301 26 36.368 26 36.435V41.125C26 41.192 26.0671 41.259 26.1341 41.259H26.2683V77.64C26.2683 80.588 28.6829 83 31.6341 83H53.3659C56.3171 83 58.7317 80.588 58.7317 77.64V35.162H58.8659C58.9329 35.162 59 35.095 59 35.028V30.338C59.0671 30.271 59 30.204 58.9329 30.204ZM42.5 17.876C42.7012 17.876 42.9024 18.01 42.9024 18.278C42.9024 18.479 42.7683 18.68 42.5 18.68C42.2988 18.68 42.0976 18.546 42.0976 18.278C42.0976 18.077 42.2988 17.876 42.5 17.876ZM40.0183 20.087H45.0488C45.1829 20.087 45.3171 20.221 45.3171 20.355C45.3171 20.489 45.1829 20.623 45.0488 20.623H40.0183C39.8841 20.623 39.75 20.489 39.75 20.355C39.75 20.221 39.8171 20.087 40.0183 20.087ZM37.4024 19.819C37.7378 19.819 37.939 20.087 37.939 20.355C37.939 20.69 37.6707 20.891 37.4024 20.891C37.0671 20.891 36.8659 20.623 36.8659 20.355C36.7988 20.02 37.0671 19.819 37.4024 19.819ZM42.5 81.191C41.0244 81.191 39.8841 79.985 39.8841 78.578C39.8841 77.104 41.0915 75.965 42.5 75.965C43.9085 75.965 45.1159 77.171 45.1159 78.578C45.1159 79.985 43.9756 81.191 42.5 81.191ZM56.7195 74.692H28.2805V24.174H56.7195V74.692Z" fill="black"/>
</g>
<defs>
<clipPath id="clip0">
<rect width="33" height="67" fill="white" transform="translate(26 16)"/>
</clipPath>
</defs>
</svg>
