<svg width="85" height="127" viewBox="0 0 85 127" fill="none" xmlns="http://www.w3.org/2000/svg">
<rect x="0.25" y="0.25" width="84.5" height="126.5" rx="1.75" stroke="#C0C0C0" stroke-width="0.5"/>
<path d="M11.1079 102H11.9989V96.313H11.1079V102ZM11.1079 95.235H11.9989V94.135H11.1079V95.235ZM13.6754 102H14.6654V98.7H16.8104C18.5264 98.7 19.3514 97.831 19.3514 96.39C19.3514 95.796 19.1534 95.279 18.8234 94.894C18.4164 94.41 17.7784 94.135 16.9534 94.135H13.6754V102ZM14.6654 94.993H16.7884C17.7894 94.993 18.3724 95.488 18.3724 96.434C18.3724 97.336 17.8444 97.897 16.7334 97.897H14.6654V94.993ZM21.3923 94.135H20.5013V102H21.3923V98.502C21.3923 97.567 22.0523 96.929 22.9543 96.929C23.7573 96.929 24.2413 97.347 24.2413 98.084V102H25.1323V98.007C25.1323 96.83 24.4063 96.181 23.2183 96.181C22.3933 96.181 21.8213 96.522 21.4143 97.061H21.3923V94.135ZM29.0739 102.154C30.7789 102.154 31.8129 100.812 31.8129 99.162C31.8129 97.512 30.7789 96.17 29.0739 96.17C27.3799 96.17 26.3239 97.512 26.3239 99.162C26.3239 100.812 27.3799 102.154 29.0739 102.154ZM29.0739 101.406C27.8639 101.406 27.2369 100.416 27.2369 99.162C27.2369 97.908 27.8639 96.907 29.0739 96.907C30.2839 96.907 30.8999 97.908 30.8999 99.162C30.8999 100.416 30.2839 101.406 29.0739 101.406ZM33.9225 96.313H33.0315V102H33.9225V98.502C33.9225 97.567 34.5825 96.929 35.4845 96.929C36.2875 96.929 36.7715 97.347 36.7715 98.084V102H37.6625V98.007C37.6625 96.83 36.9365 96.181 35.7485 96.181C34.9235 96.181 34.3515 96.522 33.9445 97.061H33.9225V96.313ZM41.604 102.154C42.891 102.154 43.782 101.461 44.046 100.24H43.177C42.979 101.01 42.429 101.406 41.604 101.406C40.46 101.406 39.833 100.526 39.767 99.371H44.167C44.167 97.49 43.254 96.17 41.549 96.17C39.932 96.17 38.854 97.512 38.854 99.162C38.854 100.812 39.866 102.154 41.604 102.154ZM41.549 96.874C42.572 96.874 43.155 97.567 43.21 98.7H39.789C39.921 97.666 40.493 96.874 41.549 96.874ZM46.9982 102H48.1202L50.2322 98.689H50.2542L52.2782 102H53.4662L50.8152 97.985L53.3892 94.135H52.3002L50.3092 97.281H50.2872L48.3402 94.135H47.1962L49.7262 97.974L46.9982 102ZM54.4475 103.408C55.0745 103.287 55.5035 102.836 55.5035 102.033V100.911H54.4365V102H54.9425C54.9425 102.616 54.6895 102.825 54.4475 102.913V103.408ZM58.5478 102H59.6698L61.7818 98.689H61.8038L63.8278 102H65.0158L62.3648 97.985L64.9388 94.135H63.8498L61.8588 97.281H61.8368L59.8898 94.135H58.7458L61.2758 97.974L58.5478 102ZM66.2391 102H67.2291V98.678H69.4181C70.4741 98.678 70.9361 99.085 71.0131 100.24C71.1011 101.56 71.1341 101.857 71.2991 102H72.3661V101.956C72.2231 101.857 72.0911 101.538 72.0031 100.273C71.9261 99.107 71.6731 98.557 70.8701 98.271V98.238C71.8161 97.93 72.2341 97.248 72.2341 96.291C72.2341 95.004 71.2991 94.135 69.9131 94.135H66.2391V102ZM67.2291 94.993H69.6161C70.7711 94.993 71.2111 95.477 71.2111 96.434C71.2111 97.325 70.6611 97.875 69.5611 97.875H67.2291V94.993ZM73.6318 103.408C74.2588 103.287 74.6878 102.836 74.6878 102.033V100.911H73.6208V102H74.1268C74.1268 102.616 73.8738 102.825 73.6318 102.913V103.408ZM15.3766 116H16.4986L18.6106 112.689H18.6326L20.6566 116H21.8446L19.1936 111.985L21.7676 108.135H20.6786L18.6876 111.281H18.6656L16.7186 108.135H15.5746L18.1046 111.974L15.3766 116ZM25.7131 116.154C27.4071 116.154 28.6061 115.329 28.6061 113.855C28.6061 112.084 27.2091 111.71 25.6801 111.402C24.5031 111.171 23.6231 110.907 23.6231 110.016C23.6231 109.202 24.3271 108.751 25.3941 108.751C26.5491 108.751 27.2751 109.312 27.4181 110.434H28.3531C28.1551 108.982 27.3411 107.981 25.3721 107.981C23.7771 107.981 22.6991 108.762 22.6991 110.06C22.6991 111.545 23.8871 111.941 25.2731 112.249C26.6811 112.557 27.6271 112.81 27.6271 113.888C27.6271 114.867 26.8461 115.362 25.7571 115.362C24.2721 115.362 23.4581 114.669 23.3261 113.338H22.3581C22.4461 114.922 23.5021 116.154 25.7131 116.154ZM29.7194 117.408C30.3464 117.287 30.7754 116.836 30.7754 116.033V114.911H29.7084V116H30.2144C30.2144 116.616 29.9614 116.825 29.7194 116.913V117.408ZM35.6897 116H36.6137V108.421H35.8987C35.7557 109.532 34.9637 109.873 34.0397 109.895V110.511H35.6897V116ZM39.8224 116H40.7464V108.421H40.0314C39.8884 109.532 39.0964 109.873 38.1724 109.895V110.511H39.8224V116ZM42.4262 117.408C43.0532 117.287 43.4822 116.836 43.4822 116.033V114.911H42.4152V116H42.9212C42.9212 116.616 42.6682 116.825 42.4262 116.913V117.408ZM48.3964 116H49.3204V108.421H48.6054C48.4624 109.532 47.6704 109.873 46.7464 109.895V110.511H48.3964V116ZM52.5291 116H53.4531V108.421H52.7381C52.5951 109.532 51.8031 109.873 50.8791 109.895V110.511H52.5291V116ZM60.3158 116.154C62.0098 116.154 63.2088 115.329 63.2088 113.855C63.2088 112.084 61.8118 111.71 60.2828 111.402C59.1058 111.171 58.2258 110.907 58.2258 110.016C58.2258 109.202 58.9298 108.751 59.9968 108.751C61.1518 108.751 61.8778 109.312 62.0208 110.434H62.9558C62.7578 108.982 61.9438 107.981 59.9748 107.981C58.3798 107.981 57.3018 108.762 57.3018 110.06C57.3018 111.545 58.4898 111.941 59.8758 112.249C61.2838 112.557 62.2298 112.81 62.2298 113.888C62.2298 114.867 61.4488 115.362 60.3598 115.362C58.8748 115.362 58.0608 114.669 57.9288 113.338H56.9608C57.0488 114.922 58.1048 116.154 60.3158 116.154ZM64.6716 116H70.3586V115.087H65.6616V112.326H69.8086V111.49H65.6616V109.004H70.2266V108.135H64.6716V116Z" fill="#2E2E2E"/>
<path d="M60.8557 27.472H60.7114V16.609C60.7114 13.556 58.1142 11 54.9399 11H30.988C27.8136 11 25.2886 13.556 25.2886 16.609V20.585H25.1443C25.0721 20.585 25 20.656 25 20.727V23.07C25 23.141 25.0721 23.212 25.1443 23.212H25.2886V25.555H25.1443C25.0721 25.555 25 25.626 25 25.697V30.525C25 30.596 25.0721 30.667 25.1443 30.667H25.2886V32.158H25.1443C25.0721 32.158 25 32.229 25 32.3V37.128C25 37.199 25.0721 37.27 25.1443 37.27H25.2886V76.391C25.2886 79.515 27.8858 82 30.988 82H55.012C58.1864 82 60.7114 79.444 60.7114 76.391V35.495H60.8557C60.9279 35.495 61 35.424 61 35.353V27.543C61 27.472 60.9279 27.472 60.8557 27.472ZM46.8597 13.485C47.0762 13.485 47.2926 13.627 47.2926 13.911C47.2926 14.124 47.1483 14.337 46.8597 14.337C46.5711 14.337 46.4269 14.053 46.4269 13.84C46.4269 13.627 46.6433 13.485 46.8597 13.485ZM40.9439 13.556H44.9118C45.0561 13.556 45.2004 13.698 45.2004 13.84C45.2004 13.982 45.0561 14.124 44.9118 14.124H40.9439C40.7996 14.124 40.6553 13.982 40.6553 13.84C40.7275 13.698 40.7996 13.556 40.9439 13.556ZM58.5471 76.32C58.5471 78.237 56.9599 79.799 55.012 79.799H30.9158C28.9679 79.799 27.3808 78.237 27.3808 76.32V16.68C27.3808 14.763 28.9679 13.201 30.9158 13.201H33.7295C33.9459 13.201 34.1623 13.414 34.1623 13.627V13.698C34.2345 14.834 35.1723 15.757 36.3267 15.757H49.6012C50.7555 15.757 51.6934 14.834 51.7655 13.698V13.556C51.7655 13.343 51.982 13.13 52.1984 13.13H55.012C56.9599 13.13 58.5471 14.692 58.5471 16.609V76.32V76.32Z" fill="black"/>
</svg>
