<svg width="425" height="866" viewBox="0 0 425 866" fill="none" xmlns="http://www.w3.org/2000/svg">
<path fill-rule="evenodd" clip-rule="evenodd" d="M421 348H422C423.105 348 424 348.895 424 350V452C424 453.105 423.105 454 422 454H421V348Z" fill="#121515"/>
<path fill-rule="evenodd" clip-rule="evenodd" d="M421 229H422C423.105 229 424 229.895 424 231V281C424 282.105 423.105 283 422 283H421V229Z" fill="#FB7E5C"/>
<g filter="url(#filter0_dd)">
<path fill-rule="evenodd" clip-rule="evenodd" d="M4 47C4 22.1472 24.1472 2 49 2H376C400.853 2 421 22.1472 421 47V815C421 839.853 400.853 860 376 860H49C24.1472 860 4 839.853 4 815V47Z" fill="#3A4245"/>
</g>
<path fill-rule="evenodd" clip-rule="evenodd" d="M9 47C9 24.9086 26.9086 7 49 7H376C398.091 7 416 24.9086 416 47V815C416 837.091 398.091 855 376 855H49C26.9086 855 9 837.091 9 815V47Z" fill="#121515"/>
<path fill-rule="evenodd" clip-rule="evenodd" d="M134 24.5C134 22.0147 136.015 20 138.5 20H286.5C288.985 20 291 22.0147 291 24.5V24.5C291 26.9853 288.985 29 286.5 29H138.5C136.015 29 134 26.9853 134 24.5V24.5Z" fill="#262C2D"/>
<path fill-rule="evenodd" clip-rule="evenodd" d="M134 837.5C134 835.015 136.015 833 138.5 833H286.5C288.985 833 291 835.015 291 837.5V837.5C291 839.985 288.985 842 286.5 842H138.5C136.015 842 134 839.985 134 837.5V837.5Z" fill="#262C2D"/>
<path fill-rule="evenodd" clip-rule="evenodd" d="M65 49C69.4183 49 73 45.4183 73 41C73 36.5817 69.4183 33 65 33C60.5817 33 57 36.5817 57 41C57 45.4183 60.5817 49 65 49Z" fill="#262C2D"/>
<path fill-rule="evenodd" clip-rule="evenodd" d="M65 46C67.7614 46 70 43.7614 70 41C70 38.2386 67.7614 36 65 36C62.2386 36 60 38.2386 60 41C60 43.7614 62.2386 46 65 46Z" fill="#121515"/>
<path opacity="0.4" fill-rule="evenodd" clip-rule="evenodd" d="M65 40C65.5523 40 66 39.5523 66 39C66 38.4477 65.5523 38 65 38C64.4477 38 64 38.4477 64 39C64 39.5523 64.4477 40 65 40Z" fill="#636F73"/>
<mask id="mask0" mask-type="alpha" maskUnits="userSpaceOnUse" x="25" y="57" width="375" height="750">
<path d="M25 84C25 69.0883 37.0883 57 52 57H373C387.912 57 400 69.0883 400 84V780C400 794.912 387.912 807 373 807H52C37.0883 807 25 794.912 25 780V84Z" fill="#C4C4C4"/>
</mask>
<g mask="url(#mask0)">
<path fill-rule="evenodd" clip-rule="evenodd" d="M25 57H400V807H25V57Z" fill="white"/>
</g>
<defs>
<filter id="filter0_dd" x="0" y="0" width="425" height="866" filterUnits="userSpaceOnUse" color-interpolation-filters="sRGB">
<feFlood flood-opacity="0" result="BackgroundImageFix"/>
<feColorMatrix in="SourceAlpha" type="matrix" values="0 0 0 0 0 0 0 0 0 0 0 0 0 0 0 0 0 0 127 0"/>
<feOffset/>
<feGaussianBlur stdDeviation="1"/>
<feColorMatrix type="matrix" values="0 0 0 0 0 0 0 0 0 0.0823529 0 0 0 0 0.25098 0 0 0 0.14 0"/>
<feBlend mode="normal" in2="BackgroundImageFix" result="effect1_dropShadow"/>
<feColorMatrix in="SourceAlpha" type="matrix" values="0 0 0 0 0 0 0 0 0 0 0 0 0 0 0 0 0 0 127 0"/>
<feOffset dy="2"/>
<feGaussianBlur stdDeviation="2"/>
<feColorMatrix type="matrix" values="0 0 0 0 0 0 0 0 0 0.0823529 0 0 0 0 0.25098 0 0 0 0.05 0"/>
<feBlend mode="normal" in2="effect1_dropShadow" result="effect2_dropShadow"/>
<feBlend mode="normal" in="SourceGraphic" in2="effect2_dropShadow" result="shape"/>
</filter>
</defs>
</svg>
