<svg width="391" height="858" viewBox="0 0 391 858" fill="none" xmlns="http://www.w3.org/2000/svg">
<path d="M388 156H389C390.105 156 391 156.927 391 158.071V260.929C391 262.073 390.105 263 389 263H388V156Z" fill="#121515"/>
<path d="M388 321H389C390.105 321 391 321.927 391 323.071V374.929C391 376.073 390.105 377 389 377H388V321Z" fill="#121515"/>
<path d="M0 87.4C0 48.4865 0 29.0297 11.0213 16.1254C12.5864 14.293 14.293 12.5864 16.1254 11.0213C29.0297 0 48.4865 0 87.4 0H300.6C339.514 0 358.97 0 371.875 11.0213C373.707 12.5864 375.414 14.293 376.979 16.1254C388 29.0297 388 48.4865 388 87.4V770.6C388 809.514 388 828.97 376.979 841.875C375.414 843.707 373.707 845.414 371.875 846.979C358.97 858 339.514 858 300.6 858H87.4C48.4865 858 29.0297 858 16.1254 846.979C14.293 845.414 12.5864 843.707 11.0213 841.875C0 828.97 0 809.514 0 770.6V87.4Z" fill="#3A4245"/>
<path d="M2 80.85C2 48.1383 2 31.7824 10.802 20.6171C12.7979 18.0854 15.0854 15.7979 17.6171 13.802C28.7824 5 45.1383 5 77.85 5H310.15C342.862 5 359.218 5 370.383 13.802C372.915 15.7979 375.202 18.0854 377.198 20.6171C386 31.7824 386 48.1383 386 80.85V777.15C386 809.862 386 826.218 377.198 837.383C375.202 839.915 372.915 842.202 370.383 844.198C359.218 853 342.862 853 310.15 853H77.85C45.1383 853 28.7824 853 17.6171 844.198C15.0854 842.202 12.7979 839.915 10.802 837.383C2 826.218 2 809.862 2 777.15V80.85Z" fill="#121515"/>
<mask id="mask0" mask-type="alpha" maskUnits="userSpaceOnUse" x="9" y="15" width="370" height="822">
<path d="M9 50C9 30.67 24.67 15 44 15H344C363.33 15 379 30.67 379 50V802C379 821.33 363.33 837 344 837H44C24.67 837 9 821.33 9 802V50Z" fill="white"/>
</mask>
<g mask="url(#mask0)">
<rect x="9" y="15" width="370" height="822" fill="white"/>
</g>
<path fill-rule="evenodd" clip-rule="evenodd" d="M192 41C197.523 41 202 36.5228 202 31C202 25.4772 197.523 21 192 21C186.477 21 182 25.4772 182 31C182 36.5228 186.477 41 192 41Z" fill="#262C2D"/>
<path fill-rule="evenodd" clip-rule="evenodd" d="M192 37.25C195.452 37.25 198.25 34.4518 198.25 31C198.25 27.5482 195.452 24.75 192 24.75C188.548 24.75 185.75 27.5482 185.75 31C185.75 34.4518 188.548 37.25 192 37.25Z" fill="#121515"/>
<path opacity="0.4" fill-rule="evenodd" clip-rule="evenodd" d="M192 29.75C192.69 29.75 193.25 29.1904 193.25 28.5C193.25 27.8096 192.69 27.25 192 27.25C191.31 27.25 190.75 27.8096 190.75 28.5C190.75 29.1904 191.31 29.75 192 29.75Z" fill="#636F73"/>
</svg>
