<svg width="760" height="131" viewBox="0 0 760 131" fill="none" xmlns="http://www.w3.org/2000/svg">
<path d="M69.8535 96.2749C67.0833 100.243 63.2088 103.219 58.23 105.203C53.2886 107.15 47.5236 108.123 40.9351 108.123C34.2716 108.123 28.3569 106.569 23.1909 103.462C18.0249 100.318 14.0194 95.8631 11.1743 90.0981C8.3667 84.3332 6.92546 77.651 6.85059 70.0518V62.9204C6.85059 50.6043 9.71436 41.0584 15.4419 34.2827C21.2069 27.507 29.2928 24.1191 39.6997 24.1191C48.2349 24.1191 55.1042 26.3091 60.3076 30.689C65.5111 35.0314 68.693 41.2082 69.8535 49.2192H59.0723C57.0508 38.4006 50.612 32.9912 39.7559 32.9912C32.5309 32.9912 27.0467 35.5368 23.3032 40.6279C19.5972 45.6816 17.7254 53.0189 17.688 62.6396V69.3218C17.688 78.4933 19.7843 85.7931 23.9771 91.2212C28.1698 96.6118 33.8411 99.3071 40.9912 99.3071C45.0342 99.3071 48.5718 98.8579 51.604 97.9595C54.6362 97.061 57.1444 95.5449 59.1284 93.4111V75.0493H40.2051V66.2896H69.8535V96.2749ZM123.76 107C123.161 105.802 122.674 103.668 122.3 100.599C117.471 105.615 111.706 108.123 105.005 108.123C99.0153 108.123 94.0926 106.438 90.2368 103.069C86.4185 99.6628 84.5093 95.3577 84.5093 90.1543C84.5093 83.8278 86.9051 78.9238 91.6968 75.4424C96.5259 71.9235 103.302 70.1641 112.024 70.1641H122.131V65.3911C122.131 61.7599 121.046 58.8774 118.875 56.7437C116.703 54.5724 113.503 53.4868 109.272 53.4868C105.566 53.4868 102.459 54.4227 99.9512 56.2944C97.443 58.1662 96.189 60.431 96.189 63.0889H85.7446C85.7446 60.0566 86.8115 57.1367 88.9453 54.3291C91.1165 51.484 94.0365 49.238 97.7051 47.5908C101.411 45.9437 105.473 45.1201 109.89 45.1201C116.89 45.1201 122.375 46.8796 126.343 50.3984C130.311 53.8799 132.37 58.6903 132.52 64.8296V92.7935C132.52 98.3713 133.231 102.807 134.653 106.102V107H123.76ZM106.521 99.0825C109.778 99.0825 112.866 98.2402 115.786 96.5557C118.706 94.8711 120.821 92.6812 122.131 89.9858V77.52H113.989C101.261 77.52 94.8975 81.2448 94.8975 88.6943C94.8975 91.9512 95.9831 94.4967 98.1543 96.3311C100.326 98.1654 103.114 99.0825 106.521 99.0825ZM178.171 55.5645C176.599 55.3024 174.896 55.1714 173.062 55.1714C166.248 55.1714 161.625 58.0726 159.192 63.875V107H148.804V46.2432H158.911L159.08 53.2622C162.486 47.8341 167.315 45.1201 173.567 45.1201C175.588 45.1201 177.123 45.3822 178.171 45.9062V55.5645ZM184.124 76.1162C184.124 66.7949 186.332 59.3079 190.75 53.6553C195.167 47.9652 200.951 45.1201 208.101 45.1201C215.213 45.1201 220.847 47.5534 225.002 52.4199V20.75H235.391V107H225.845L225.339 100.486C221.184 105.577 215.4 108.123 207.988 108.123C200.951 108.123 195.204 105.241 190.75 99.4756C186.332 93.7106 184.124 86.1862 184.124 76.9023V76.1162ZM194.512 77.2954C194.512 84.1834 195.934 89.5741 198.779 93.4673C201.624 97.3605 205.555 99.3071 210.571 99.3071C217.16 99.3071 221.97 96.3498 225.002 90.4351V62.5273C221.895 56.7998 217.122 53.936 210.684 53.936C205.592 53.936 201.624 55.9014 198.779 59.832C195.934 63.7627 194.512 69.5838 194.512 77.2954ZM276.775 108.123C268.539 108.123 261.838 105.428 256.672 100.037C251.506 94.609 248.923 87.3654 248.923 78.3062V76.397C248.923 70.37 250.065 64.998 252.349 60.2812C254.67 55.527 257.889 51.821 262.007 49.1631C266.162 46.4678 270.654 45.1201 275.483 45.1201C283.382 45.1201 289.521 47.7218 293.901 52.9253C298.281 58.1287 300.471 65.5783 300.471 75.2739V79.5977H259.312C259.461 85.5872 261.202 90.4351 264.534 94.1411C267.903 97.8097 272.17 99.644 277.336 99.644C281.005 99.644 284.112 98.8953 286.658 97.3979C289.203 95.9006 291.431 93.9165 293.34 91.4458L299.685 96.3872C294.594 104.211 286.957 108.123 276.775 108.123ZM275.483 53.6553C271.291 53.6553 267.772 55.1901 264.927 58.2598C262.082 61.292 260.322 65.5596 259.648 71.0625H290.083V70.2764C289.784 64.998 288.361 60.9176 285.815 58.0352C283.27 55.1152 279.826 53.6553 275.483 53.6553ZM322.371 46.2432L322.708 53.8799C327.349 48.04 333.414 45.1201 340.901 45.1201C353.741 45.1201 360.217 52.3638 360.33 66.8511V107H349.941V66.7949C349.904 62.415 348.893 59.1769 346.909 57.0806C344.963 54.9842 341.912 53.936 337.756 53.936C334.387 53.936 331.43 54.8345 328.884 56.6313C326.339 58.4282 324.355 60.7866 322.932 63.7065V107H312.544V46.2432H322.371ZM466.289 81.0576C465.278 89.7051 462.078 96.3872 456.687 101.104C451.334 105.783 444.202 108.123 435.293 108.123C425.635 108.123 417.886 104.66 412.046 97.7349C406.243 90.8094 403.342 81.5443 403.342 69.9395V62.0781C403.342 54.4788 404.69 47.7967 407.385 42.0317C410.118 36.2668 413.974 31.8494 418.953 28.7798C423.931 25.6727 429.696 24.1191 436.248 24.1191C444.932 24.1191 451.895 26.5524 457.136 31.4189C462.377 36.248 465.428 42.9489 466.289 51.5215H455.452C454.516 45.0078 452.476 40.291 449.331 37.3711C446.224 34.4512 441.863 32.9912 436.248 32.9912C429.36 32.9912 423.95 35.5368 420.02 40.6279C416.126 45.7191 414.18 52.9627 414.18 62.3589V70.2764C414.18 79.1484 416.033 86.2049 419.739 91.4458C423.445 96.6867 428.63 99.3071 435.293 99.3071C441.283 99.3071 445.868 97.9595 449.05 95.2642C452.27 92.5314 454.403 87.7959 455.452 81.0576H466.289ZM489.817 53.5991C494.421 47.9465 500.411 45.1201 507.786 45.1201C520.626 45.1201 527.102 52.3638 527.214 66.8511V107H516.826V66.7949C516.789 62.415 515.778 59.1769 513.794 57.0806C511.847 54.9842 508.796 53.936 504.641 53.936C501.272 53.936 498.315 54.8345 495.769 56.6313C493.223 58.4282 491.239 60.7866 489.817 63.7065V107H479.429V20.75H489.817V53.5991ZM580.278 100.992C576.235 105.746 570.302 108.123 562.478 108.123C556.002 108.123 551.06 106.251 547.654 102.508C544.285 98.7269 542.581 93.1491 542.544 85.7744V46.2432H552.932V85.4937C552.932 94.7026 556.676 99.3071 564.163 99.3071C572.099 99.3071 577.377 96.3498 579.998 90.4351V46.2432H590.386V107H580.503L580.278 100.992ZM635.588 55.5645C634.016 55.3024 632.313 55.1714 630.479 55.1714C623.665 55.1714 619.042 58.0726 616.609 63.875V107H606.221V46.2432H616.328L616.497 53.2622C619.903 47.8341 624.732 45.1201 630.984 45.1201C633.005 45.1201 634.54 45.3822 635.588 45.9062V55.5645ZM668.438 99.644C672.144 99.644 675.382 98.521 678.152 96.2749C680.922 94.0288 682.457 91.2212 682.756 87.8521H692.583C692.396 91.3335 691.198 94.6465 688.989 97.791C686.781 100.936 683.823 103.444 680.117 105.315C676.449 107.187 672.555 108.123 668.438 108.123C660.164 108.123 653.576 105.372 648.672 99.8687C643.805 94.3283 641.372 86.7664 641.372 77.1831V75.4424C641.372 69.5277 642.458 64.2681 644.629 59.6636C646.8 55.0591 649.907 51.484 653.95 48.9385C658.031 46.3929 662.841 45.1201 668.381 45.1201C675.194 45.1201 680.847 47.1603 685.339 51.2407C689.869 55.3211 692.284 60.6182 692.583 67.1318H682.756C682.457 63.2012 680.959 59.9818 678.264 57.4736C675.606 54.9281 672.312 53.6553 668.381 53.6553C663.103 53.6553 659.004 55.5645 656.084 59.3828C653.201 63.1637 651.76 68.6479 651.76 75.8354V77.8008C651.76 84.8011 653.201 90.1917 656.084 93.9727C658.966 97.7536 663.084 99.644 668.438 99.644ZM714.651 53.5991C719.255 47.9465 725.245 45.1201 732.62 45.1201C745.46 45.1201 751.936 52.3638 752.048 66.8511V107H741.66V66.7949C741.623 62.415 740.612 59.1769 738.628 57.0806C736.681 54.9842 733.63 53.936 729.475 53.936C726.106 53.936 723.149 54.8345 720.603 56.6313C718.057 58.4282 716.073 60.7866 714.651 63.7065V107H704.263V20.75H714.651V53.5991Z" fill="black"/>
</svg>
