<svg width="136" height="15" viewBox="0 0 136 15" fill="none" xmlns="http://www.w3.org/2000/svg">
<path d="M8.87289 14.4821C8.20997 14.7583 7.53006 14.9137 6.86714 14.9137C5.79628 14.9137 4.84439 14.7238 3.9775 14.3441C3.12761 13.9643 2.3967 13.4465 1.81877 12.7905C1.24084 12.1346 0.781902 11.3579 0.475941 10.4603C0.152981 9.5627 0 8.59607 0 7.57766C0 6.50746 0.152981 5.52357 0.475941 4.62599C0.781902 3.71114 1.24084 2.93439 1.81877 2.2612C2.4137 1.58801 3.12761 1.05291 3.9775 0.673166C4.8274 0.29342 5.79628 0.103546 6.86714 0.103546C7.58105 0.103546 8.27797 0.207113 8.94088 0.431509C9.6038 0.655905 10.2157 0.966607 10.7597 1.39814C11.3036 1.82967 11.7455 2.3475 12.1025 2.96891C12.4594 3.59031 12.6634 4.29802 12.7484 5.1093H9.80778C9.6208 4.31528 9.28084 3.7284 8.75391 3.33139C8.22697 2.93439 7.59805 2.72725 6.85014 2.72725C6.15323 2.72725 5.5753 2.86534 5.08237 3.14152C4.60642 3.4177 4.21547 3.78019 3.90951 4.22898C3.60355 4.67777 3.39958 5.21287 3.24659 5.78249C3.11061 6.36937 3.04262 6.97351 3.04262 7.59492C3.04262 8.19906 3.11061 8.76868 3.24659 9.3383C3.38258 9.90792 3.60355 10.4085 3.90951 10.8573C4.21547 11.3061 4.60642 11.6686 5.08237 11.9447C5.55831 12.2209 6.15323 12.359 6.85014 12.359C7.87002 12.359 8.65192 12.1001 9.21285 11.5823C9.77378 11.0644 10.0967 10.3049 10.1817 9.30378H7.08811V6.93899H12.9524V14.603H10.9976L10.6917 12.9977C10.1477 13.7054 9.53581 14.206 8.87289 14.4821Z" fill="black"/>
<path d="M14.8391 7.49135C14.8731 6.83542 15.0431 6.28306 15.332 5.85153C15.621 5.42 15.978 5.05752 16.4199 4.7986C16.8619 4.53968 17.3548 4.34981 17.9157 4.22898C18.4766 4.10815 19.0206 4.05637 19.5815 4.05637C20.0914 4.05637 20.6014 4.09089 21.1283 4.15993C21.6553 4.22898 22.1312 4.36707 22.5561 4.59146C22.9811 4.7986 23.338 5.09204 23.61 5.47179C23.882 5.85153 24.018 6.35211 24.018 6.97351V12.3072C24.018 12.7733 24.052 13.2221 24.1029 13.6363C24.1539 14.0679 24.2389 14.3786 24.3749 14.5857H21.5533C21.5023 14.4304 21.4513 14.2577 21.4343 14.1024C21.4003 13.9298 21.3833 13.7744 21.3663 13.6018C20.9243 14.0679 20.3974 14.3958 19.8025 14.5685C19.2076 14.7583 18.5956 14.8446 17.9667 14.8446C17.4908 14.8446 17.0318 14.7928 16.6239 14.672C16.1989 14.5512 15.842 14.3613 15.536 14.1197C15.2301 13.8607 14.9751 13.55 14.8051 13.1703C14.6351 12.7905 14.5331 12.3245 14.5331 11.8067C14.5331 11.2198 14.6351 10.7365 14.8391 10.374C15.0431 9.99423 15.298 9.70079 15.621 9.47639C15.944 9.25199 16.3009 9.07938 16.7089 8.97581C17.1168 8.85499 17.5248 8.76868 17.9497 8.69963C18.3747 8.63059 18.7826 8.57881 19.1736 8.54428C19.5815 8.50976 19.9385 8.44072 20.2444 8.37167C20.5504 8.30263 20.8054 8.1818 20.9923 8.02645C21.1793 7.8711 21.2643 7.6467 21.2473 7.35326C21.2473 7.04256 21.1963 6.8009 21.0943 6.62829C20.9923 6.45568 20.8734 6.31759 20.7034 6.21402C20.5334 6.11045 20.3464 6.04141 20.1424 6.00688C19.9215 5.97236 19.7005 5.9551 19.4455 5.9551C18.9016 5.9551 18.4597 6.07593 18.1537 6.31759C17.8477 6.55924 17.6608 6.95625 17.6098 7.50861H14.8391V7.49135ZM21.2473 9.57996C21.1283 9.68352 20.9753 9.76983 20.8054 9.82161C20.6354 9.8734 20.4484 9.92518 20.2444 9.97696C20.0405 10.0115 19.8365 10.046 19.6155 10.0805C19.3945 10.1151 19.1736 10.1323 18.9526 10.1841C18.7486 10.2186 18.5446 10.2704 18.3407 10.3395C18.1367 10.4085 17.9667 10.4948 17.8137 10.6156C17.6608 10.7365 17.5418 10.8745 17.4568 11.0472C17.3718 11.2198 17.3208 11.4442 17.3208 11.7031C17.3208 11.962 17.3718 12.1691 17.4568 12.3418C17.5418 12.5144 17.6777 12.6525 17.8307 12.756C17.9837 12.8596 18.1707 12.9286 18.3747 12.9632C18.5786 12.9977 18.7996 13.0149 19.0206 13.0149C19.5645 13.0149 19.9895 12.9286 20.2954 12.7388C20.6014 12.5489 20.8224 12.3245 20.9583 12.0656C21.0943 11.8067 21.1963 11.5477 21.2303 11.2888C21.2643 11.0299 21.2813 10.8055 21.2813 10.6502V9.57996H21.2473Z" fill="black"/>
<path d="M28.4204 4.33255V6.23128H28.4544C28.5904 5.92058 28.7604 5.62714 28.9814 5.35096C29.2023 5.07478 29.4573 4.85038 29.7463 4.66051C30.0352 4.47064 30.3412 4.31528 30.6642 4.21172C30.9871 4.10815 31.3271 4.05637 31.684 4.05637C31.871 4.05637 32.075 4.09089 32.296 4.15993V6.78364C32.16 6.74912 32.007 6.73186 31.82 6.71459C31.633 6.69733 31.4631 6.68007 31.2931 6.68007C30.7831 6.68007 30.3582 6.76638 30.0012 6.93899C29.6443 7.1116 29.3723 7.35326 29.1513 7.6467C28.9304 7.94014 28.7774 8.28536 28.6924 8.68237C28.6074 9.07938 28.5564 9.51091 28.5564 9.97696V14.603H25.7858V4.33255H28.4204Z" fill="black"/>
<path d="M39.9114 13.2911C39.5884 13.8435 39.1635 14.2405 38.6365 14.4994C38.1096 14.7411 37.5147 14.8619 36.8518 14.8619C36.1039 14.8619 35.4239 14.7065 34.863 14.4131C34.2851 14.1197 33.8091 13.7054 33.4522 13.2048C33.0782 12.687 32.8063 12.1174 32.6193 11.4442C32.4323 10.7883 32.3303 10.0978 32.3303 9.37283C32.3303 8.68238 32.4323 8.02646 32.6193 7.37053C32.8063 6.73186 33.0952 6.16224 33.4522 5.67893C33.8261 5.19562 34.2851 4.79861 34.846 4.50517C35.4069 4.21173 36.0529 4.05637 36.8008 4.05637C37.3957 4.05637 37.9736 4.1772 38.5176 4.43612C39.0615 4.69504 39.4864 5.07479 39.7924 5.57536H39.8264V0.431519H42.5971V14.603H39.9624V13.2911H39.9114ZM39.7924 8.21633C39.7074 7.81932 39.5884 7.4741 39.3844 7.18066C39.1975 6.88721 38.9595 6.64556 38.6535 6.45568C38.3476 6.26581 37.9736 6.1795 37.5147 6.1795C37.0557 6.1795 36.6818 6.26581 36.3588 6.45568C36.0529 6.64556 35.7979 6.88722 35.6109 7.19792C35.4239 7.50862 35.288 7.85384 35.203 8.23359C35.118 8.6306 35.084 9.02761 35.084 9.45914C35.084 9.85614 35.135 10.2532 35.22 10.6502C35.305 11.0472 35.4579 11.4097 35.6619 11.7204C35.8659 12.0311 36.1209 12.29 36.4268 12.4799C36.7328 12.6697 37.1067 12.7733 37.5317 12.7733C37.9906 12.7733 38.3646 12.687 38.6705 12.4971C38.9765 12.3072 39.2145 12.0656 39.4014 11.7549C39.5884 11.4442 39.7074 11.0817 39.7924 10.6847C39.8774 10.2877 39.9114 9.87341 39.9114 9.45914C39.9114 9.01035 39.8774 8.61334 39.7924 8.21633Z" fill="black"/>
<path d="M36.8514 14.9482C36.0865 14.9482 35.4066 14.7929 34.8116 14.4994C34.2337 14.1887 33.7408 13.7744 33.3668 13.2566C32.9929 12.7388 32.7039 12.1346 32.5169 11.4787C32.33 10.8055 32.228 10.1151 32.228 9.39009C32.228 8.69965 32.33 8.0092 32.5169 7.37053C32.7039 6.71461 32.9929 6.14499 33.3668 5.64441C33.7408 5.14383 34.2167 4.74683 34.7946 4.43612C35.3726 4.12542 36.0355 3.98733 36.7834 3.98733C37.3953 3.98733 37.9732 4.12542 38.5342 4.38434C39.0271 4.626 39.4181 4.95396 39.724 5.38549V0.345215H42.6647V14.6893H39.86V13.5328C39.537 13.9988 39.1461 14.3613 38.6532 14.5857C38.1262 14.8101 37.5143 14.9482 36.8514 14.9482ZM36.7834 4.14268C36.0525 4.14268 35.4066 4.29803 34.8626 4.57421C34.3187 4.86765 33.8598 5.2474 33.4858 5.73072C33.1289 6.21403 32.8399 6.76639 32.6529 7.40505C32.4659 8.04372 32.3809 8.69965 32.3809 9.37283C32.3809 10.0805 32.4829 10.771 32.6529 11.4097C32.8399 12.0656 33.1119 12.6352 33.4858 13.1358C33.8428 13.6364 34.3187 14.0334 34.8796 14.3268C35.4406 14.6202 36.1035 14.7583 36.8344 14.7583C37.4803 14.7583 38.0752 14.6375 38.5852 14.3958C39.0951 14.1542 39.52 13.7744 39.826 13.2221L39.843 13.1876H40.013V14.4994H42.4777V0.517827H39.877V5.67893H39.707L39.69 5.64441C39.3841 5.1611 38.9761 4.78135 38.4492 4.53969C37.9392 4.26351 37.3783 4.14268 36.7834 4.14268ZM37.5313 12.8423C37.0894 12.8423 36.6984 12.7388 36.3754 12.5489C36.0525 12.359 35.7975 12.0828 35.5935 11.7721C35.3896 11.4614 35.2366 11.0817 35.1346 10.6847C35.0496 10.2877 34.9986 9.87341 34.9986 9.4764C34.9986 9.04487 35.0496 8.6306 35.1346 8.23359C35.2196 7.83658 35.3556 7.4741 35.5595 7.1634C35.7465 6.85269 36.0185 6.59378 36.3414 6.4039C36.6644 6.21403 37.0724 6.11046 37.5313 6.11046C38.0072 6.11046 38.3982 6.21403 38.7042 6.4039C39.0101 6.59378 39.2651 6.85269 39.4691 7.1634C39.656 7.4741 39.809 7.81932 39.877 8.23359C39.962 8.6306 39.996 9.04487 39.996 9.4764C39.996 9.90793 39.962 10.3222 39.877 10.7192C39.792 11.1162 39.656 11.496 39.4691 11.8067C39.2821 12.1346 39.0271 12.3935 38.7042 12.5834C38.3982 12.7388 38.0072 12.8423 37.5313 12.8423ZM37.5313 6.26581C37.0894 6.26581 36.7154 6.35212 36.4264 6.52473C36.1205 6.69734 35.8825 6.939 35.6955 7.23244C35.5086 7.52588 35.3726 7.87111 35.3046 8.25085C35.2196 8.6306 35.1856 9.04487 35.1856 9.45914C35.1856 9.85615 35.2366 10.2359 35.3216 10.6329C35.4066 11.0126 35.5595 11.3579 35.7465 11.6686C35.9335 11.962 36.1885 12.2209 36.4774 12.3935C36.7664 12.5834 37.1234 12.6697 37.5313 12.6697C37.9732 12.6697 38.3472 12.5834 38.6362 12.4108C38.9251 12.2382 39.1631 11.9965 39.3331 11.7031C39.503 11.4097 39.639 11.0472 39.707 10.6674C39.792 10.2704 39.826 9.87341 39.826 9.45914C39.826 9.04487 39.792 8.6306 39.707 8.25085C39.639 7.87111 39.5031 7.54314 39.3161 7.2497C39.1291 6.97352 38.8911 6.73187 38.6022 6.55925C38.3302 6.35212 37.9732 6.26581 37.5313 6.26581Z" fill="black"/>
<path d="M47.4584 12.1346C47.8834 12.5489 48.4783 12.756 49.2602 12.756C49.8211 12.756 50.2971 12.6179 50.705 12.3245C51.1129 12.0483 51.3509 11.7376 51.4529 11.4269H53.8836C53.4927 12.6525 52.8977 13.5328 52.0818 14.0679C51.2659 14.603 50.2971 14.8619 49.1582 14.8619C48.3593 14.8619 47.6454 14.7411 47.0165 14.4822C46.3705 14.2232 45.8436 13.8608 45.4017 13.3774C44.9597 12.8941 44.6198 12.3245 44.3818 11.6686C44.1438 11.0127 44.0248 10.2704 44.0248 9.4764C44.0248 8.71691 44.1438 7.99194 44.3988 7.33601C44.6538 6.68008 44.9937 6.11046 45.4527 5.62715C45.9116 5.14383 46.4555 4.76409 47.0845 4.48791C47.7134 4.21173 48.4103 4.07364 49.1922 4.07364C50.0591 4.07364 50.807 4.24625 51.4359 4.57421C52.0818 4.91944 52.5918 5.36823 53.0167 5.93785C53.4247 6.50747 53.7306 7.1634 53.9006 7.88837C54.0876 8.61334 54.1556 9.37283 54.0876 10.1669H46.7955C46.8125 11.0644 47.0505 11.7204 47.4584 12.1346ZM50.603 6.73187C50.2631 6.36938 49.7701 6.17951 49.0902 6.17951C48.6483 6.17951 48.2743 6.24855 47.9853 6.4039C47.6964 6.55925 47.4584 6.74913 47.2884 6.97352C47.1185 7.19792 46.9825 7.43958 46.9145 7.68123C46.8465 7.94015 46.7955 8.16455 46.7955 8.35442H51.3169C51.1639 7.64671 50.926 7.11161 50.603 6.73187Z" fill="black"/>
<path d="M49.1578 14.9482C48.3589 14.9482 47.628 14.8101 46.9821 14.5512C46.3362 14.2923 45.7753 13.9126 45.3333 13.4292C44.8914 12.9459 44.5344 12.359 44.2964 11.6859C44.0585 11.0127 43.9225 10.2704 43.9225 9.47642C43.9225 8.69967 44.0415 7.9747 44.2964 7.30151C44.5514 6.62832 44.9084 6.04144 45.3673 5.55812C45.8262 5.07481 46.3872 4.6778 47.0331 4.40162C47.679 4.12544 48.3929 3.97009 49.1748 3.97009C50.0417 3.97009 50.8066 4.1427 51.4695 4.48793C52.1155 4.83315 52.6594 5.29921 53.0673 5.86883C53.4753 6.43845 53.7813 7.11163 53.9682 7.83661C54.1552 8.56158 54.2232 9.33833 54.1722 10.1496V10.2359H46.8971C46.9481 11.0817 47.1691 11.6859 47.543 12.0656C47.934 12.4626 48.5289 12.6525 49.2768 12.6525C49.8207 12.6525 50.2797 12.5144 50.6706 12.2382C51.0616 11.962 51.2996 11.6859 51.3845 11.3752L51.4015 11.3061H54.0192L53.9852 11.4269C53.5943 12.6697 52.9654 13.5673 52.1495 14.1197C51.3166 14.672 50.3137 14.9482 49.1578 14.9482ZM49.1578 4.1427C48.4099 4.1427 47.713 4.28079 47.0841 4.55697C46.4552 4.83315 45.9282 5.2129 45.4863 5.67895C45.0443 6.14501 44.6874 6.71463 44.4494 7.37055C44.2115 8.02648 44.0755 8.73419 44.0755 9.47642C44.0755 10.2532 44.1945 10.9781 44.4324 11.6341C44.6704 12.29 45.0103 12.8424 45.4353 13.3084C45.8602 13.7745 46.4042 14.137 47.0331 14.3959C47.662 14.6548 48.3759 14.7756 49.1578 14.7756C50.2797 14.7756 51.2486 14.5167 52.0475 13.9989C52.8124 13.4983 53.3903 12.6697 53.7813 11.5132H51.5035C51.4015 11.8239 51.1466 12.1174 50.7556 12.3936C50.3477 12.687 49.8377 12.8424 49.2598 12.8424C48.4609 12.8424 47.832 12.6352 47.407 12.2037C46.9821 11.7722 46.7441 11.099 46.6931 10.1669V10.0806H53.9852C54.0192 9.32107 53.9682 8.5961 53.7813 7.90565C53.5943 7.19794 53.3053 6.54201 52.8974 5.98966C52.4894 5.4373 51.9795 4.9885 51.3506 4.66054C50.7386 4.31532 50.0077 4.1427 49.1578 4.1427ZM51.4015 8.45801H46.6931V8.3717C46.7101 8.16457 46.7441 7.94017 46.8291 7.68125C46.8971 7.42234 47.0331 7.16342 47.2201 6.93902C47.407 6.69737 47.645 6.50749 47.951 6.35214C48.2569 6.19679 48.6479 6.11048 49.0898 6.11048C49.7867 6.11048 50.3137 6.30036 50.6706 6.69737C51.0106 7.07711 51.2486 7.64673 51.3845 8.3717L51.4015 8.45801ZM46.8631 8.2854H51.1806C51.0446 7.64673 50.8236 7.14616 50.5347 6.80093C50.2287 6.45571 49.7358 6.26583 49.0898 6.26583C48.6649 6.26583 48.3079 6.33488 48.019 6.49023C47.73 6.62832 47.509 6.81819 47.3391 7.02533C47.1691 7.23246 47.0501 7.47412 46.9821 7.71578C46.9311 7.92291 46.8801 8.11278 46.8631 8.2854Z" fill="black"/>
<path d="M58.1499 4.33258V5.76526H58.2009C58.5578 5.16111 59.0168 4.72958 59.5607 4.47067C60.1217 4.19449 60.6996 4.0564 61.2775 4.0564C62.0254 4.0564 62.6373 4.15996 63.1133 4.3671C63.5892 4.57423 63.9632 4.85041 64.2351 5.2129C64.5071 5.57538 64.6941 6.02418 64.8131 6.54201C64.9321 7.05985 64.983 7.64673 64.983 8.2854V14.603H62.2124V8.80323C62.2124 7.95743 62.0764 7.31877 61.8214 6.9045C61.5665 6.49023 61.0905 6.28309 60.4276 6.28309C59.6797 6.28309 59.1188 6.50749 58.7788 6.97354C58.4389 7.42233 58.2689 8.18183 58.2689 9.23476V14.6203H55.4982V4.33258H58.1499Z" fill="black"/>
<path d="M65.0848 14.6893H62.1442V8.80323C62.1442 7.9747 62.0252 7.35329 61.7702 6.95628C61.5323 6.55928 61.0903 6.3694 60.4614 6.3694C59.7305 6.3694 59.2036 6.5938 58.8806 7.02533C58.5576 7.45686 58.3877 8.19909 58.3877 9.23476V14.7066H55.447V4.24627H58.2517V5.55812C58.5916 5.02303 59.0336 4.64328 59.5605 4.38436C60.1384 4.10818 60.7164 3.97009 61.3113 3.97009C62.0592 3.97009 62.6881 4.07366 63.1641 4.28079C63.657 4.48793 64.048 4.78137 64.3199 5.16112C64.5919 5.54086 64.7959 5.98966 64.9148 6.52475C65.0338 7.05985 65.0848 7.64673 65.0848 8.2854V14.6893ZM62.2972 14.5167H64.8978V8.2854C64.8978 7.66399 64.8469 7.07711 64.7279 6.55928C64.6259 6.0587 64.4389 5.60991 64.1669 5.26468C63.912 4.91946 63.538 4.64328 63.0791 4.43615C62.6201 4.22901 62.0082 4.1427 61.2773 4.1427C60.6994 4.1427 60.1384 4.28079 59.5945 4.53971C59.0506 4.79863 58.6086 5.23016 58.2687 5.79978L58.2517 5.8343H58.0647V4.40162H55.6V14.4994H58.2007V9.2175C58.2007 8.16457 58.3707 7.38781 58.7276 6.9045C59.0846 6.42119 59.6625 6.17953 60.4444 6.17953C61.1413 6.17953 61.6343 6.40392 61.9062 6.85272C62.1782 7.28425 62.3142 7.94017 62.3142 8.80323V14.5167H62.2972Z" fill="black"/>
<path d="M81.4032 4.21172C81.2162 3.91828 80.9952 3.65936 80.7233 3.43497C80.4513 3.21057 80.1453 3.03796 79.7884 2.91713C79.4484 2.7963 79.0745 2.72726 78.7005 2.72726C78.0036 2.72726 77.4257 2.86535 76.9327 3.14153C76.4568 3.41771 76.0658 3.78019 75.7599 4.22898C75.4539 4.67777 75.2499 5.21287 75.097 5.78249C74.961 6.36937 74.893 6.97352 74.893 7.59492C74.893 8.19906 74.961 8.76868 75.097 9.3383C75.2329 9.90792 75.4539 10.4085 75.7599 10.8573C76.0658 11.3061 76.4568 11.6686 76.9327 11.9447C77.4087 12.2209 78.0036 12.359 78.7005 12.359C79.6354 12.359 80.3663 12.0656 80.8932 11.4787C81.4202 10.8918 81.7431 10.1323 81.8621 9.18295H84.8367C84.7518 10.0633 84.5478 10.8746 84.2248 11.5823C83.9019 12.29 83.4769 12.9114 82.933 13.412C82.406 13.9125 81.7771 14.2923 81.0632 14.5685C80.3493 14.8274 79.5504 14.9655 78.7005 14.9655C77.6296 14.9655 76.6778 14.7756 75.8109 14.3958C74.961 14.0161 74.2301 13.4983 73.6521 12.8423C73.0572 12.1864 72.6153 11.4097 72.3093 10.5121C72.0034 9.61448 71.8334 8.64785 71.8334 7.62944C71.8334 6.57651 71.9864 5.59262 72.3093 4.67777C72.6153 3.76293 73.0742 2.98617 73.6521 2.31299C74.2301 1.6398 74.961 1.1047 75.8109 0.724955C76.6608 0.345208 77.6296 0.155334 78.7005 0.155334C79.4654 0.155334 80.1963 0.276163 80.8762 0.500559C81.5562 0.724955 82.1681 1.05292 82.712 1.48445C83.2559 1.91598 83.6979 2.45108 84.0548 3.08974C84.4118 3.72841 84.6328 4.45338 84.7178 5.28192H81.7431C81.6921 4.83313 81.5732 4.50516 81.4032 4.21172Z" fill="black"/>
<path d="M78.7002 15C77.6293 15 76.6434 14.8101 75.7765 14.4304C74.9097 14.0506 74.1787 13.5155 73.5838 12.8423C72.9889 12.1692 72.5299 11.3751 72.224 10.4776C71.901 9.57998 71.748 8.59609 71.748 7.56041C71.748 6.49022 71.901 5.48907 72.224 4.59148C72.5469 3.67664 73.0059 2.86536 73.5838 2.19217C74.1787 1.51899 74.9097 0.966628 75.7765 0.586881C76.6434 0.189873 77.6293 0 78.7002 0C79.4821 0 80.213 0.120829 80.9099 0.345224C81.6068 0.56962 82.2357 0.914845 82.7797 1.34638C83.3236 1.77791 83.7826 2.33026 84.1395 2.96893C84.4965 3.60759 84.7174 4.34983 84.8194 5.17837L84.8364 5.28193H81.6918L81.6748 5.21289C81.6238 4.86766 81.5048 4.55696 81.3349 4.26352C81.1649 3.97008 80.9269 3.71116 80.6719 3.50403C80.4 3.27963 80.111 3.10702 79.771 2.98619C79.4311 2.86536 79.0741 2.79632 78.7172 2.79632C78.0373 2.79632 77.4593 2.93441 77.0004 3.19333C76.5245 3.45224 76.1505 3.81473 75.8615 4.26352C75.5726 4.71231 75.3516 5.23015 75.2156 5.79977C75.0796 6.36939 75.0116 6.97353 75.0116 7.57768C75.0116 8.16456 75.0796 8.73418 75.2156 9.28654C75.3516 9.83889 75.5726 10.3395 75.8615 10.771C76.1505 11.2025 76.5415 11.565 77.0004 11.8239C77.4593 12.0829 78.0373 12.2209 78.7172 12.2209C79.6181 12.2209 80.349 11.9448 80.8589 11.3751C81.3689 10.8055 81.6918 10.046 81.8108 9.11392L81.8278 9.04488H84.9724V9.13119C84.8874 10.0288 84.6834 10.84 84.3605 11.565C84.0375 12.29 83.5956 12.9114 83.0516 13.412C82.5077 13.9125 81.8788 14.3096 81.1479 14.5857C80.366 14.8619 79.5671 15 78.7002 15ZM78.7002 0.172612C77.6463 0.172612 76.6944 0.362486 75.8445 0.742232C75.0116 1.12198 74.2977 1.63982 73.7198 2.313C73.1419 2.96893 72.6999 3.76295 72.394 4.66053C72.088 5.55811 71.935 6.542 71.935 7.57768C71.935 8.59609 72.088 9.56272 72.394 10.443C72.6999 11.3234 73.1419 12.1001 73.7198 12.7388C74.2977 13.3947 75.0116 13.9125 75.8445 14.275C76.6774 14.6375 77.6463 14.8274 78.7002 14.8274C79.5501 14.8274 80.332 14.6893 81.0289 14.4304C81.7258 14.1715 82.3547 13.7917 82.8817 13.2911C83.4086 12.7906 83.8335 12.1864 84.1565 11.496C84.4625 10.8228 84.6664 10.046 84.7514 9.21749H81.9298C81.8108 10.1496 81.4708 10.9091 80.9439 11.496C80.4 12.1001 79.6351 12.3936 78.6832 12.3936C77.9863 12.3936 77.3743 12.2555 76.8814 11.9793C76.3885 11.7031 75.9805 11.3234 75.6746 10.8746C75.3686 10.4258 75.1476 9.89068 75.0116 9.32106C74.8757 8.75144 74.8077 8.16456 74.8077 7.56041C74.8077 6.93901 74.8757 6.31761 75.0116 5.73072C75.1476 5.14384 75.3686 4.60875 75.6746 4.14269C75.9805 3.67664 76.3885 3.29689 76.8814 3.02071C77.3743 2.74453 77.9863 2.60644 78.6832 2.60644C79.0741 2.60644 79.4481 2.67549 79.805 2.79632C80.162 2.91715 80.485 3.10702 80.7569 3.33142C81.0289 3.55581 81.2669 3.83199 81.4538 4.14269C81.6238 4.43613 81.7428 4.74684 81.8108 5.09206H84.6154C84.5135 4.33257 84.3095 3.64212 83.9695 3.03797C83.6296 2.41657 83.1876 1.88147 82.6437 1.4672C82.1168 1.05293 81.5048 0.724971 80.8249 0.500575C80.179 0.27618 79.4481 0.172612 78.7002 0.172612Z" fill="black"/>
<path d="M89.2221 0.431519V5.76524H89.2731C89.63 5.16109 90.072 4.72956 90.6159 4.47064C91.1598 4.19446 91.7038 4.05637 92.2137 4.05637C92.9616 4.05637 93.5735 4.15994 94.0495 4.36708C94.5254 4.57421 94.8994 4.85039 95.1714 5.21288C95.4433 5.57536 95.6303 6.02415 95.7493 6.54199C95.8683 7.05983 95.9193 7.64671 95.9193 8.28537V14.603H93.1486V8.80321C93.1486 7.95741 93.0126 7.31874 92.7577 6.90448C92.5027 6.49021 92.0267 6.28307 91.3638 6.28307C90.6159 6.28307 90.055 6.50747 89.715 6.97352C89.3751 7.42231 89.2051 8.18181 89.2051 9.23474V14.6202H86.4344V0.431519H89.2221Z" fill="black"/>
<path d="M96.004 14.6893H93.0633V8.80321C93.0633 7.97467 92.9443 7.35327 92.6894 6.95626C92.4514 6.55925 92.0095 6.36938 91.3805 6.36938C90.6496 6.36938 90.1227 6.59378 89.7997 7.02531C89.4768 7.45684 89.3068 8.19907 89.3068 9.23474V14.7066H86.3492V0.345215H89.2898V5.57536C89.6298 5.04027 90.0717 4.66052 90.5817 4.4016C91.1426 4.12542 91.6865 3.98733 92.2304 3.98733C92.9783 3.98733 93.6073 4.0909 94.0832 4.29803C94.5761 4.50517 94.9671 4.79861 95.2391 5.17836C95.511 5.5581 95.715 6.0069 95.834 6.54199C95.953 7.07709 96.004 7.66397 96.004 8.30264V14.6893ZM93.2333 14.5167H95.834V8.28538C95.834 7.66397 95.783 7.07709 95.664 6.55925C95.562 6.05868 95.375 5.60989 95.1031 5.26466C94.8481 4.91944 94.4742 4.64326 94.0152 4.43612C93.5563 4.22899 92.9443 4.14268 92.2134 4.14268C91.7035 4.14268 91.1766 4.28077 90.6496 4.53969C90.1227 4.79861 89.6808 5.23014 89.3408 5.79976L89.3238 5.83428H89.1368V0.517827H86.5192V14.5167H89.1198V9.21748C89.1198 8.16455 89.2898 7.38779 89.6468 6.90448C90.0037 6.42116 90.5816 6.17951 91.3635 6.17951C92.0605 6.17951 92.5534 6.4039 92.8254 6.8527C93.0973 7.28423 93.2333 7.94015 93.2333 8.80321V14.5167Z" fill="black"/>
<path d="M104.673 14.603V13.1703H104.622C104.265 13.7744 103.806 14.1887 103.262 14.4649C102.701 14.7238 102.124 14.8619 101.546 14.8619C100.798 14.8619 100.186 14.7583 99.7099 14.5685C99.2339 14.3786 98.86 14.0851 98.588 13.7227C98.316 13.3602 98.1291 12.9114 98.0101 12.3935C97.8911 11.8757 97.8401 11.2888 97.8401 10.6502V4.33255H100.611V10.1323C100.611 10.9781 100.747 11.6168 101.002 12.0311C101.257 12.4453 101.733 12.6525 102.396 12.6525C103.143 12.6525 103.704 12.4281 104.044 11.962C104.384 11.5132 104.554 10.7537 104.554 9.70079V4.33255H107.325V14.603H104.673Z" fill="black"/>
<path d="M101.528 14.9482C100.78 14.9482 100.151 14.8446 99.6755 14.6375C99.1826 14.4304 98.7916 14.1369 98.5197 13.7744C98.2477 13.3947 98.0437 12.9459 97.9247 12.4108C97.8058 11.893 97.7548 11.2888 97.7548 10.6502V4.24625H100.695V10.1323C100.695 10.9609 100.814 11.5823 101.069 11.9793C101.307 12.3763 101.749 12.5662 102.378 12.5662C103.109 12.5662 103.636 12.3418 103.959 11.9102C104.282 11.4787 104.452 10.7365 104.452 9.70079V4.24625H107.393V14.6893H104.588V13.3774C104.248 13.9125 103.806 14.2923 103.279 14.5339C102.718 14.8101 102.123 14.9482 101.528 14.9482ZM97.9247 4.41886V10.6502C97.9247 11.2716 97.9757 11.8584 98.0947 12.3763C98.1967 12.8769 98.3837 13.3256 98.6557 13.6709C98.9106 14.0161 99.2846 14.2923 99.7435 14.4821C100.202 14.672 100.814 14.7756 101.545 14.7756C102.123 14.7756 102.684 14.6375 103.228 14.3786C103.772 14.1197 104.214 13.7054 104.554 13.1185L104.571 13.084H104.758V14.5167H107.223V4.41886H104.622V9.71805C104.622 10.771 104.452 11.5477 104.095 12.0311C103.738 12.5144 103.16 12.756 102.378 12.756C101.681 12.756 101.188 12.5316 100.916 12.0828C100.644 11.6513 100.508 10.9954 100.508 10.1496V4.41886H97.9247Z" fill="black"/>
<path d="M111.183 4.33255V6.23128H111.217C111.353 5.92058 111.523 5.62714 111.744 5.35096C111.965 5.07478 112.22 4.85038 112.509 4.66051C112.798 4.47064 113.104 4.31528 113.427 4.21172C113.75 4.10815 114.09 4.05637 114.447 4.05637C114.634 4.05637 114.838 4.09089 115.059 4.15993V6.78364C114.923 6.74912 114.77 6.73186 114.583 6.71459C114.396 6.69733 114.226 6.68007 114.056 6.68007C113.546 6.68007 113.121 6.76638 112.764 6.93899C112.407 7.1116 112.135 7.35326 111.914 7.6467C111.693 7.94014 111.54 8.28536 111.455 8.68237C111.37 9.07938 111.319 9.51091 111.319 9.97696V14.603H108.548V4.33255H111.183Z" fill="black"/>
<path d="M120.328 6.17954C119.886 6.17954 119.512 6.28311 119.206 6.49024C118.9 6.69737 118.662 6.95629 118.475 7.28426C118.288 7.61222 118.152 7.97471 118.067 8.35445C117.982 8.75146 117.948 9.13121 117.948 9.51095C117.948 9.87344 117.982 10.2532 118.067 10.6502C118.152 11.0299 118.271 11.3752 118.441 11.6859C118.611 11.9966 118.849 12.2555 119.155 12.4454C119.461 12.6525 119.818 12.7388 120.243 12.7388C120.906 12.7388 121.416 12.5489 121.773 12.1692C122.13 11.7894 122.351 11.2889 122.453 10.6502H125.138C124.951 12.0138 124.441 13.0495 123.575 13.7745C122.708 14.4822 121.62 14.8447 120.277 14.8447C119.529 14.8447 118.832 14.7238 118.203 14.4649C117.574 14.206 117.03 13.8435 116.588 13.3775C116.147 12.9114 115.807 12.3591 115.552 11.7204C115.297 11.0817 115.178 10.374 115.178 9.61452C115.178 8.8205 115.297 8.07827 115.518 7.40509C115.739 6.7319 116.079 6.12775 116.52 5.64444C116.962 5.14387 117.506 4.76412 118.135 4.48794C118.781 4.21176 119.495 4.07367 120.328 4.07367C120.923 4.07367 121.501 4.15998 122.062 4.31533C122.623 4.47068 123.116 4.71233 123.541 5.0403C123.983 5.36826 124.339 5.76527 124.611 6.24858C124.883 6.7319 125.036 7.30152 125.087 7.95744H122.368C122.198 6.76642 121.518 6.17954 120.328 6.17954Z" fill="black"/>
<path d="M129.303 0.431549V5.76527H129.354C129.711 5.16112 130.153 4.72959 130.697 4.47067C131.241 4.19449 131.785 4.05641 132.294 4.05641C133.042 4.05641 133.654 4.15997 134.13 4.36711C134.606 4.57424 134.98 4.85042 135.252 5.21291C135.524 5.57539 135.711 6.02418 135.83 6.54202C135.949 7.05986 136 7.64674 136 8.2854V14.603H133.229V8.80324C133.229 7.95744 133.093 7.31878 132.838 6.90451C132.583 6.49024 132.107 6.2831 131.445 6.2831C130.697 6.2831 130.136 6.5075 129.796 6.97355C129.456 7.42234 129.286 8.18184 129.286 9.23477V14.6203H126.515V0.431549H129.303Z" fill="black"/>
</svg>
